<?xml version="1.0" encoding="UTF-8"?>
<svg id="a" data-name="katman 1" xmlns="http://www.w3.org/2000/svg" viewBox="0 0 2500 2500">
  <path d="M1119.07,2398.99l-.28-108.45-2.57-24.51-11.13-63.33-18.15-107.03-2.62-27.37-2.03-23.76-9.93,6.35-16.25,14.29-35.3,35.8-42.18,57.08-109.88,183.51-10.71,19.46,1.52-59.2,2.72-66.18.49-14.16,1.91-62.9c1.8-59.36,2.56-117.24-5.06-175.91l-2.93-22.6-11.1-54.57c-7.7-37.85-21.86-72.65-37.78-107.81l-38.07-69.36c-18.43-33.59-60.88-54.2-99.4-62.4l-52.38-11.15-69.69-12.56-30.27-5.15-70.59-12.11-98.09-16.99-18.86-5.27,99.03-70.93,15.37-9.32,67.97-33.75c32.7-16.23,67.07-25.71,102.09-35.29l60.04-16.42,16.93-4.75-20.12-3.41-25.08-2.24-58.85-4.42c44.84-21.98,92.06-33.95,142.07-37.02l44.54-2.73,64.83-.63,86,2.73.67-3.42-32.39-24.18-15.51-13.55-15.39-16.63-.25-4.98,30.36,3.32,22.67,2.47,91.48,9.87,16.87,1.67,27.52,2.51,43.57,2.99c24.67,1.69,49.02-1.75,72.19-9.32,22.34-7.3,51.82-27.08,56.06-48.16.98-4.88-6.76-14.66-11.26-16.77l-16.91-7.93-47.35-16.19-18.9-8.35c-16.75-7.4-33.51-15.06-46.45-28.03l-38.39-38.48c-21.1-21.15-33.37-49.85-42.34-78.35l-13.31-42.24,1.33-4.51,56.01,19.11,46.69,16.43c34.28,12.06,66.63,26.65,98.35,44.3l28.11,18.82,20.17,18.32c36.22,32.9,51.13,75.11,62.88,79.54l23.37,8.8c18.89,7.11-8.32-80.18-47.53-119.05l-34.33-34.03-35.44-25.04-28.15-15.5-63.23-30.19-38.25-17.07-11.59-4.86-143.74-56.68-140.55-65.22-49.52-27.75c-53.26-29.85-102.79-63.59-148.72-103.68l-22.23-19.41-63.05-63.02-19.39-22.18c-38.48-44.02-69.74-92.14-97.77-143.65-41.95-77.09-64.02-151.29-71.48-238.44l.04-69.69c0-5.22,3.87-16.68,7.24-20.42,1.29-1.43,9.24.21,9.87,2.04l8.81,25.65c14.8,43.1,29.8,84.05,52.82,123.2l24.19,36.22c12.56,18.8,29.64,32.97,49.48,43.95,21.87,12.11,54.37,3.1,63.71-25.29,3.76-11.42,7.03-24.63,6.99-36.67l-.32-84.55-3.58-84.97-.1-86.06c0-3.21,10.23-5.29,11.81-3.1,2.11,2.93,6.96,9.24,7.85,12.21l14.51,48.3,8.76,32.54,8.99,32.06,27.01,85.89c13.48,42.86,31.64,82.89,53.19,122.14l35.41,52.61,18.95,19.8c18.66,19.49,46.1,29.91,73.93,23.33,15.83-3.74,27.17-18.45,31.56-33.35l6.23-21.14,3.05-18.54,2.06-20.23,1.72-54.03-.71-137.38.97-39.98c.06-2.57,4.11-7.24,6.36-8.1,2.25-.86,10.3,1.63,11.12,4.18l16.31,50.7,15.11,67.47,12.61,58.68c7.27,33.8,15.44,66.4,27.67,98.7,12.3,32.5,39.49,76.22,68.91,90.23,20.58,9.8,47.96,5.38,64.12-11.07,9.02-9.18,16.14-22.79,19.64-35.16l25.46-89.91,33.14-120.66,7.36-17.51c2.79-6.63,8.55-12.83,14.17-15.1,1.51-.61,6.76,3.65,6.73,5.28l-.63,41.46-2.81,33.46-5.15,55.04-2.59,46.62-.73,80.5,3.06,33.02c2.2,23.72,10.87,46.22,25.43,65.31,18.39,24.11,57.02,33.18,78.91,15.29,16.03-13.1,27.53-29.67,37.84-47.28l8.23-14.05,4.85-8.53,24.59-49.74,21.91-46.74,12.01-26.22,14.48-32.21,12-26.72,12.69-28.25,11.08-24.68,14.56-32.26,11.76-24.58,16.96-28.18c.97-1.62,9.96-1.64,10.85.03,3.86,7.16,4.6,16.76,2.98,25.57l-3.93,21.44-10.48,44.83-33.78,117.19-46.67,142.75-21.74,76.99-3.92,35.62-.11,19.37c-.22,39.4,13.78,72.84,52.97,77.82,31.99,4.07,75.35-12.94,101.59-31.53l30.4-21.54,21.12-17.87,9.04-9.53,19.62-22,8.66-10.53,60.72-90.08,5.12-8.81,9.09-15.77c1.99-3.45,8.6-10.28,11.98-12.99,1.68-1.35,8.7,4.4,8.54,6.51l-1.69,21.7-6.47,27.57c-9.57,40.8-28.97,77.82-52.42,112.14l-19.02,27.85-10.76,14.22-10.91,13.41-18.27,20.74-20.42,20.42-28.99,26.34-8.76,7.28-12.18,10.08-17.99,14.89-14.83,12.58-18.91,16.96-16.51,16.35c-43.68,43.25-61.29,112.5-35.14,163.82l13.96,27.41c16.38,25.13,31.84,49.34,43.84,76.78l10.87,24.86,8.76,18.28c4.28-10.9,7.24-19.55,8.22-30.69l.38-4.37-.59-10.06-1.1-7.16,3.05-3.41,28.59,14.95c19.25,10.07,39.54,20.14,55.14,35.61l52.37,51.93,8.2,10.91c10.08,13.42,1.45,35.51-7,40.83l-16.35,10.28-4.35,2.76c-.71.45-.16,1.98.25,3.76,15.51,29.84,33.79,56.48,54.78,82.64l10.99,13.7c13.21,16.46,27.88,29.01,46.86,38.49l52.97,26.47,76.95,38.57,29.43,14.82c46.18,23.25,89.51,48.78,130.08,81.05l42.92,42.29,8.45,10.67,12.43,18.21c19.07,27.94,33.21,78.11,34.04,111.17l2.05,81.43c.62,24.46-6.55,63.41-21.41,78.13l-9.87,9.78c-25.27,25.03-78.21,36.56-116.22,40.15l-44.93-.22c-15.03-.07-34.09-6.82-44.98-17.4l-49.06-47.64-15.04-12.17c-69.4-56.17-168.12-46.34-240.95.91-31.78,19.28-52.48,47.67-62.36,83.22l-2.14,3.58-1.43,4.22c-22.27,65.63-50.79,126.28-94.93,181.05l-1.56-4.86.07-96.34-.55-17.57-2.94-30.66c-4.27-44.55-64.79-54-74.48-106.66l-4.87-26.46c-2.69-14.6,4.65-28.61,12.17-40.62l2.52-4.02c13.24-15.11,30.97-30.24,46.68-41.69l-4.24-2.99c-33.92-8.02-63.38-24.46-85.52-51.3l-2.92-2.81-2.77-2.66-2.82-2.73-2.36-3.18-2.32-3.17-2.28-3.11-2.38-3.25-2.17-3.06-2.31-3.34-2.27-3.22-1.92-3.61-1.89-3.54-1.99-3.63-1.99-3.61-1.78-3.28-1.8-3.75-1.88-3.93-1.77-3.63-2.17-4.52-8.7-30.58-.49-6.28-.71-4.63-.57-4.01-.72-5.17-.68-5.26-1.96-5.14c-.88-4.33-2.18-3.64-3.16.69l-7.98,37.45c-6.75,31.7,5.77,83.47,24.13,104.71l16.5,19.08,9.6,7.21,28.69,14.91,8.39,2.23c5.72,1.52-21.62,24.09-34.49,49.92l-24.56,49.32c-11.8,23.7-18.32,49.9-22.08,76.21l-6.33,44.27-1.34,12.05c-6.36,57.04-17.06,111.81-37.06,166.08l-35.82,76.99-10.9,19.3-14.84,26.18-2.02,3.53-3.42,4c-.37.43-.36-3.1-.25-3.95l.62-4.98.37-6.86ZM1591.82,1504.65l22.13,3.17,32.59,2.9-6.56-15.63c-6.09-14.53-14.81-28.11-26.3-39.14-21.64-20.78-53.05-37.15-81.83-36.92l-13.51.11-28.98,3.46-4.67,4.16,50.77,30.54c21.6,12.99,32.86,44,56.35,47.36Z" fill="#fcc803"/>
  <path d="M1767.6,765.18l4.83-5.66c7.82,10.29,12.04,17.28,15.97,27.54,9.39,24.56,17.87,48.61,21.19,75.03l1.76,14.01,3.37,123.47c.28,10.32,2.09,22.52,7.41,30.62,11.07,16.87,39.69,2.44,55.73-19.51,15.56-21.3,27.29-43.26,36.54-67.97,27.44-73.31,33.77-150.57,26.43-228.77l-1.56-16.65-3.11-35.58-2.33-32.34c15.67-1.03,24.74,23.45,30.99,44.41,9.11,30.53,16.04,60.75,19.33,92.62l2.41,23.29-.23,120.18-.92,37.54c-.12,4.91,4.9,14.56,7.95,18.37,14.34,6.12,32.44-.26,43.76-9.81,12.32-10.4,24.7-20,32.96-33.31l24.23-39.04,17.09-38.02c21.09-54.59,30.59-111.32,33.96-170.05l.12-66.44-2.73-44.51.34-38.58c10.48,4.08,16.75,9.81,19.42,18.51l12.31,40.09,12.52,71.91,2.57,27.47-.2,97.58c-3.25,41.22-9.99,81.15-21.77,120.64-14.68,49.19-46.94,117.61-81.31,152.27l-39.69,40.02-11.81,10.28c-70.19,61.11-175.71,97.68-268.15,110.53l-21.4,2.98-36.45,5.62c-17.45,2.69-47.65,21.85-59.63,40.77l-17.42-19.57-15.31-14.72-22.39-18.92c-24.8-20.96-52.39-34.67-82.89-51.52l36.67-9.11,84.96-19.46c22.97-5.26,43.44-17.08,62.22-31.56l24.68-24.48c25.5-25.3,45.72-97.15,47.31-136.15l4.04-98.93-3.73-75.08Z" fill="#fcc803"/>
</svg>