<?xml version="1.0" encoding="UTF-8"?>
<svg id="a" data-name="katman 1" xmlns="http://www.w3.org/2000/svg" viewBox="0 0 2500 1017.63">
  <g>
    <path d="M471.29,618.83h-112.73l-166.67-292.64v292.64h-113.37V148.54h113.37l166.35,292.64V148.54h113.05v470.29Z"/>
    <path d="M936.09,618.83h-112.73v-196.38h-166.99v196.38h-113.37V148.54h113.37v186.7h166.99v-186.7h112.73v470.29Z"/>
  </g>
  <g>
    <path d="M1418.88,236.07h-141.15v382.76h-113.37V236.07h-138.57v-87.53h393.09v87.53Z" fill="#fcc803"/>
    <path d="M1695.05,530.97h-155.36l-27.13,87.86h-121.13l172.48-470.29h106.59l173.77,470.29h-121.77l-27.46-87.86ZM1566.82,443.44h101.1l-50.71-163.12-50.39,163.12Z" fill="#fcc803"/>
    <path d="M2053.9,304.87l76.88-156.33h129.52l-131.46,233.21,135.01,237.08h-130.82l-79.14-159.24-79.13,159.24h-130.49l134.69-237.08-131.14-233.21h129.2l76.87,156.33Z" fill="#fcc803"/>
    <path d="M2421.48,618.83h-113.05V148.54h113.05v470.29Z" fill="#fcc803"/>
  </g>
  <g>
    <path d="M152.91,838.19h65.11v28.77h-102.52v-155.17h37.41v126.39Z"/>
    <path d="M273.66,866.96h-37.3v-155.17h37.3v155.17Z"/>
    <path d="M359.88,824.76l30.91-112.96h41.78l-52.22,155.17h-40.92l-51.79-155.17h41.46l30.8,112.96Z"/>
    <path d="M540.09,801.1h-58.83v37.09h69.48v28.77h-106.89v-155.17h107.1v28.88h-69.7v32.72h58.83v27.71Z"/>
    <path d="M718.06,805.15h-60.32v61.81h-37.41v-155.17h103.8v28.88h-66.39v35.7h60.32v28.78Z"/>
    <path d="M797.35,812.08h-20.25v54.88h-37.41v-155.17h61.06c18.4,0,32.79,4.08,43.16,12.24,10.37,8.16,15.56,19.7,15.56,34.6,0,10.79-2.18,19.73-6.55,26.83s-11.21,12.85-20.52,17.25l32.4,62.65v1.6h-40.07l-27.39-54.88ZM777.1,783.3h23.66c7.1,0,12.45-1.87,16.04-5.61,3.59-3.74,5.38-8.96,5.38-15.65s-1.81-11.95-5.44-15.76c-3.62-3.81-8.95-5.72-15.99-5.72h-23.66v42.73Z"/>
    <path d="M978.3,801.1h-58.83v37.09h69.48v28.77h-106.89v-155.17h107.1v28.88h-69.7v32.72h58.83v27.71Z"/>
    <path d="M1100.43,801.1h-58.83v37.09h69.48v28.77h-106.89v-155.17h107.1v28.88h-69.7v32.72h58.83v27.71Z"/>
    <path d="M1292.69,812.08h-20.25v54.88h-37.41v-155.17h61.06c18.4,0,32.79,4.08,43.16,12.24,10.37,8.16,15.56,19.7,15.56,34.6,0,10.79-2.18,19.73-6.55,26.83-4.37,7.1-11.21,12.85-20.52,17.25l32.4,62.65v1.6h-40.07l-27.39-54.88ZM1272.44,783.3h23.66c7.1,0,12.45-1.87,16.04-5.61,3.59-3.74,5.38-8.96,5.38-15.65s-1.81-11.95-5.44-15.76c-3.62-3.81-8.95-5.72-15.99-5.72h-23.66v42.73Z"/>
    <path d="M1417.27,866.96h-37.3v-155.17h37.3v155.17Z"/>
    <path d="M1443.27,866.96v-155.17h49.98c13.71,0,26.04,3.11,36.98,9.32,10.94,6.22,19.48,14.99,25.63,26.32,6.14,11.33,9.25,24.03,9.32,38.1v7.14c0,14.21-3,26.95-9,38.21-6.01,11.26-14.46,20.07-25.36,26.43-10.91,6.36-23.07,9.57-36.5,9.64h-51.05ZM1480.68,740.67v97.51h13c10.73,0,18.97-3.82,24.72-11.46,5.76-7.64,8.63-18.99,8.63-34.05v-6.71c0-14.99-2.88-26.29-8.63-33.89-5.76-7.6-14.14-11.4-25.15-11.4h-12.57Z"/>
    <path d="M1680.6,801.1h-58.83v37.09h69.48v28.77h-106.89v-155.17h107.1v28.88h-69.7v32.72h58.83v27.71Z"/>
    <path d="M1798.26,838.19h65.11v28.77h-102.52v-155.17h37.41v126.39Z"/>
    <path d="M2003.72,792.57c0,15.13-2.81,28.53-8.42,40.18-5.61,11.65-13.59,20.62-23.93,26.91-10.34,6.29-22.11,9.43-35.33,9.43s-24.94-3.04-35.17-9.11c-10.23-6.07-18.21-14.76-23.92-26.06-5.72-11.3-8.72-24.26-9.01-38.9v-8.74c0-15.2,2.79-28.61,8.37-40.23,5.58-11.62,13.57-20.58,23.98-26.91,10.41-6.32,22.25-9.48,35.54-9.48s24.87,3.13,35.17,9.38c10.3,6.25,18.31,15.15,24.03,26.7,5.72,11.55,8.61,24.78,8.69,39.7v7.14ZM1965.68,786.07c0-15.42-2.58-27.12-7.73-35.11-5.15-7.99-12.52-11.99-22.11-11.99-18.76,0-28.67,14.07-29.73,42.2l-.11,11.4c0,15.2,2.52,26.89,7.57,35.06,5.04,8.17,12.54,12.26,22.49,12.26s16.73-4.01,21.85-12.04c5.12-8.03,7.71-19.57,7.78-34.64v-7.14Z"/>
    <path d="M2148.55,814.42c-.5,10.8-3.41,20.34-8.74,28.61-5.33,8.28-12.81,14.69-22.43,19.24-9.63,4.55-20.62,6.82-32.98,6.82-20.39,0-36.45-6.64-48.17-19.93-11.72-13.29-17.58-32.04-17.58-56.27v-7.67c0-15.2,2.65-28.51,7.94-39.91,5.29-11.4,12.91-20.21,22.86-26.43,9.95-6.22,21.46-9.32,34.53-9.32,18.83,0,33.96,4.96,45.4,14.87,11.44,9.91,17.94,23.57,19.5,40.98h-37.3c-.29-9.45-2.67-16.23-7.14-20.36-4.48-4.12-11.3-6.18-20.46-6.18s-16.13,3.48-20.46,10.44c-4.33,6.96-6.61,18.08-6.82,33.36v10.98c0,16.55,2.08,28.38,6.23,35.49,4.16,7.11,11.31,10.66,21.47,10.66,8.6,0,15.17-2.03,19.72-6.07,4.55-4.05,6.96-10.48,7.25-19.29h37.19Z"/>
    <path d="M2254.38,837.97h-51.26l-8.95,28.99h-39.96l56.91-155.17h35.17l57.34,155.17h-40.18l-9.06-28.99ZM2212.07,809.09h33.36l-16.73-53.82-16.63,53.82Z"/>
    <path d="M2352.32,838.19h65.11v28.77h-102.52v-155.17h37.41v126.39Z"/>
  </g>
  <path d="M1174.24,765.29c5.68,0,10.41,1.69,14.17,5.06,3.77,3.38,5.65,7.69,5.65,12.95s-1.88,9.57-5.65,12.95c-3.77,3.38-8.49,5.06-14.17,5.06s-10.5-1.71-14.23-5.12c-3.73-3.41-5.6-7.71-5.6-12.9s1.86-9.48,5.6-12.89c3.73-3.41,8.47-5.12,14.23-5.12Z" fill="#fcc803"/>
</svg>