<?xml version="1.0" encoding="UTF-8"?>
<svg id="a" data-name="katman 1" xmlns="http://www.w3.org/2000/svg" viewBox="0 0 2500 2500">
  <rect width="2500" height="2500"/>
  <g>
    <g>
      <path d="M2046.21,943.98c-54.68-7.82-110.29-12.67-165.37-16.03,1.78,1.54,4.62,1.99,6.63,2.46,5.5,1.28,43.19,10.54,49.6,12.14,24.83,6.1,53.34,13.51,78.3,19.33,2.71.59,8.23,2.06,10.87,2.97.91.51,8.22,1.99,4.5,3.35-37.9.73-77.09,5.55-112.46,19.8-23.85,10.08-50.09,24.91-69.97,41.59-14.46,11.59-33.13,32.06-44.81,46.28-3,3-266.54.39-277.68,1.22,2.97-6.45,9.22-16.93,12.51-23.38,4.44-8.51,8.77-21.54,11.61-30.74,7.37-19.96,40.09-31.17,59.45-26.67,10.84,2.73,20.43,11.74,28.42,19.15,8.44,7.69,16.53,16.15,28.5,17.69,16.47,3.04,35.44-.02,51.11-5.49,21.32-7.59,31.78-20.42,33.62-43.56.05-23.11.9-52.15-10.83-72.83-9.87-21.52-29.85-36.37-49.8-48.02-15.21-8.64-34.57-18.99-50.37-26.77-8.24-3.7-18.08-7.2-25.7-12.11-3.11-1.53-10.42-9.45-12.83-11.9-2.42-2.72-11.56-16.01-13.7-19.09,1.39-2.36,4-7.2,5.19-9.66.65-1.55,2.65-6.85,3.85-8,45.88,19.79,94.27,44.34,138.33,67.95,18.83,11.23,39.07,22.99,59.18,31.86,15.76,7.23,34.65,7.79,51.63,10.17,2.14-.15,9.05.91,11.29,1.3,11.75,1.31,24.89,2.78,36.61,4.34,36.63,4.89,73.76,9.23,110.3,14.72,83.84,14.19,168.84,32.08,248.06,63.72,26.95,11.25,55.63,23.78,78.87,41.75,0,0,6.24,5.91,6.24,5.91.74.7,2.19,2.54,2.73,3.54,5.34,8.51,8.17,22.93,10.79,32.48,2.86,13,3.89,29.66,2.63,42.92-.46,1.53-.38,3.8-.51,5.38-.24.69-.62,2.15-.85,2.85-.16.79-.67,2.18-.8,2.96,0,0-1.72,2.2-1.72,2.2-.21-2.47-1.35-5.39-2.02-7.77-.52-1.55-2.2-8.58-2.59-10.38-4.41-16.58-10.81-36.98-20.74-51.16-16.29-19.98-41.68-32.44-64.62-43.19-67.74-28.47-141.04-42.77-213.44-53.28Z" fill="#fcc803"/>
      <path d="M1339.08,1128.84c9.07-14.4,21.05-35.11,29.6-49.62,2.24-3.86,8-13.79,10.17-17.53.58-1.12,2.29-4.06,3.63-4.17,2.51,15.14,7.68,37.23,8.55,52.54.17,3.92.71,15.64.78,19.39,1.25,12.14-.18,36.22,6.7,46.87,5.79,1.03,8.02-.71,10.98-5.49l7.82-12.59c2.26-3.82,6.64-11.42,8.7-15.3,14.69-25.57,25.5-55.45,29.32-84.67,1.95-13.63,3.64-30.3,7.31-43.59.59-.4,2.04-1.41,1.5-1.04,1.48,2.12,4.52,6.21,6.07,8.21,0,0,11.21,10.94,11.21,10.94,4.22,3.44,5.6,8.55,5.54,13.79-.02,11.46-.06,45.99.3,56.91.59,3.86,1.7,12,7.25,10.99,0,0,8.97-5.22,8.97-5.22-.02,2.02.52,5.6.97,7.54,0,0-.02,259.09-.02,259.09-.38,3.6-1.77,8.11-6.02,8.83-58.37.46-120.86.45-179.23-.1.44-47.04.04-171.2.04-217.46-.26-7.3,3.67-13.53,7.59-19.28,2.99-4.68,9.25-14.33,12.27-19.04Z" fill="#fcc803"/>
      <path d="M2216.46,1262.52c11.5-7.79,26.44-12.88,39.25-17.89,8.51-3.23,18.35-7.94,27.51-9.01,13.06-.97,29.37-.97,42.39-2.05,0,0,8.54-1.42,8.54-1.42,4.06-1.2,9.48-4.36,13.05-6.59,9.25-5.45,15.6-23.89,20.83-32.71,3.02-6.59-2.23-12.33-7.13-15.95,0,0-9.73-9.64-9.73-9.64-7.07-8.86-14.59-23.83-19.43-34.15,5.99,2.33,13.55,7.3,18.93,10.79,9.54,6.24,22.1,14.13,31.65,20.19,5.89,4.62,14.59,10.04,16.44,17.74,0,0,.52,11.32.52,11.32-1.04,2.8-9.9,24.92-10.58,27.06-3.52,9.58-7.95,21.09-11.85,30.58-2.15,4.33-3.97,14.27-10.68,13.78-48.07-.14-101.38.04-149.47.21-.3-.42-.73-1.95-.26-2.25Z" fill="#fcc803"/>
      <path d="M1882.71,865.04c-14.22-2.03-30.31-2.87-44.36-5.97-4.97-1.51-12.53-7.06-16.85-9.93-7.22-5.15-18.54-11.18-26.51-15.09l-.43-1.64c13.81-1.75,30.21-2.7,44.07-3.71,1.58-.14,23.11-1.42,23.85-1.83,4.03-.4,12.26-.54,15.82-3.02.56-90.65.76-218,.56-309.26,0-4.36,3.16-6.72,7.19-8.36l187.7-.02c4.96,2.07,6.66,5.32,6.74,10.16.52,48.01.1,327.78.05,370.67-3.13,8.43-14.21,4.16-21.6,3.49-58.11-8.45-117.97-18.28-176.23-25.49Z" fill="#fcc803"/>
      <path d="M687.25,825.26c-52.77,9.63-106.48,16.08-160.03,19.22-6.76-.1-16.17,2.98-19.48-5.93-2.23-.71-2.89-261.55-3.27-324.35-.03-3.93,3.4-6.4,7.25-7.96l179.79-.02c6.14,2.21,10.04,7.15,13.07,12.85,19.42,29.03,41.21,60.33,60.94,89.13,35.3,51.31,71.38,103.63,107.02,154.71,4.5,7.02-1.59,11.61-8.15,13.53-38.62,14.26-93.86,31.31-133.76,40.31-28.82,7.25-16.13-1.49-36.65-23.1.44,4.69,1.27,13.29,1.85,20.61.43,5.31-3.27,10.07-8.52,10.99-.02,0-.05,0-.07.01Z" fill="#fcc803"/>
      <g>
        <path d="M1417.18,763.57c0-.05,0-.06,0,0h0Z" fill="#fcc803"/>
        <path d="M1417.25,764.01c-7.11-3.31-14.62-6.26-21.41-10.2-4.89-2.96-9.87-5.99-14.38-9.51-3.04-2.38-5.81-5.32-8.72-7.86-4.23-4.52-7.4-9.96-10.71-15.16-17.45-2.46-39.62-3.29-57.34-3.65-7.08-.3-26.03-.42-33.34-.46,0,0-1.98-1.16-1.98-1.16-.28-19.19,1.33-42.4-.65-61.47-1.12-6.91-11.17-10.55-16.23-14.89-1.46-.39-14.51-9.55-16.12-10.61-29.17-19.01-56.42-42.95-78.44-69.99-5.94-7.41-13.11-17.95-18.13-26.1-2.96-4.27-9.2-17.07-11.64-21.77-.74-1.46-3.41-3.74-5.04-4.7l-30.19.04c-3.67,0-7.47,1.05-8.14,5.39-3.92,4.4,2.41,221.44-2.6,223.06-25.31,7.85-65.87,17.65-91.31,25.5-29.71,9.31-62.71,20.69-92.06,31.19-46.9,18.74-100.26,35.36-149.09,48.79,0,0-23.99,6.43-23.99,6.43-8.51,3.27-19.47,8.54-28.52,9.65-149.23,22.27-302.01,21.19-452.46,26.54,9.6,1.56,22.65,2.36,32.38,3.27,14.31,1.43,32.07,3.12,46.34,4.38,36.43,1.38,29.08,9.85,40.33,38.9,2.71,8.94,10.74,23.95,11.72,33.15-.55,10.28-15.18,7.55-22,8.81-14.19.68-166.17,11.96-226.4,16.49-7.16.48-18.47,1.19-25.62,1.68-1.13-.53-1.01,1.85-.02,1.68,0,0,174.71,8.67,240.63,13.23,8.4,1.84,9.49,6.42,5.42,13.75-3.34,6.72-9.64,15.11-13.94,21.23-9.53,13.33-16.08,13.5-31.59,14.74-9.44.55-108.44,7.79-112.44,9.37,32.16,2.35,64.94,5.35,97.05,8.18,14.27,1.47,11.21,4.56,14.78,15.99,1.95,10.33,3.4,25.61,4.51,36,3.21,14.6,8.95,39.91,12.68,54.4,0,0,.43,1.78.43,1.78.09.36,1.31-.53,1.39-.89,2.4-10.81,3.29-23.94,4.27-34.98,1.37-18.4,3.21-38.25,4.24-56.67-.69-2.61,10.02-11.67,11.27-13.61,7.19-9.82,16.52-20.97,23.24-31.26,7.16-10.36,17.23-24.27,23.8-35.05,3.04-4.74,8.76-16.75,11.65-21.69,3.07-8.34,8.25-19.63,6.56-28.61-2.73-10.11-16.92-44.11-16.92-44.11-1.65-7.66,6.52-8.16,12.03-8.53,2.46-.31,336.26.1,336.26.1,11.07,1.63,14.38,5.83,19.99,13.97,31.56,45.93,298.88,432.8,310.18,449.25,4.7,5.72,10.51,18.65,17.95,21.41,28.97,2.23,136.47,1.02,147.95,1.05,0,0,16.67.05,16.67.05l8.98.03c.76,0,2.92-.61,3.53-1.02,5.29-2.44,7.14-8.01,7.47-15.46.38-105.89-.09-328.85.13-435.87-.06-23.43,3.16-31-24.83-34.95-33.38-5.28-67.24-10.19-100.44-16.55-8.66-1.78-19.11-3.36-27.7-5.6-13.66-4.31-12.25-4.81-2.47-12.86,7.61-4.93,15.82-11.21,23.17-16.53,8.2-5.6,19.02-13.25,27.01-19.21,7.43-4.99,16.01-10.09,23.15-14.88.38-.25.94-2.53.72-1.92-9.25-2.1-19.68-4.91-29.25-4.58-6.27.84-14.32,5.61-20.26,7.91-5.47,2.38-13.97,5.65-19.38,8.31-9.69,4.69-23.43,10.93-33.22,15.31-8.71,4.46-19.18,9.64-27.98,13.84-1.26.68-13.87,6.48-14.56,7.62-9.9,5.25-22.59,11.39-32.79,15.95,9.73,19.61,25.11,18,43.43,21.22,13.68,2.36,29.86,5.47,43.48,7.73,43.54,7.4,87.92,15.49,131.3,23.58-.78,1.02-6.04,1.2-7.2,1.36-11.89.89-33.59,1.4-45.51,1.71-5.09.18-88.17.72-94.02,1.88-.06,2.44.51,105.23.39,111.8.46,10.43-2.9,23.67-13.56,10.17-17.44-25.15-35.86-50.75-53.28-75.91-21.37-30.09-42.98-61.07-64.16-91.29-5.35-7.61-13.84-20.04-19.18-27.74-2.38-3.57-10.96-16.36-12.57-20.39-.25-1.2.54-3.66,1.09-4.8,60.16-23.48,125.65-42.31,188.48-57.38,46.22-9.99,93.68-16.23,140.9-18.35,13.77-.43,30.45-2.18,44.21-1.45,1.2-1.19,35.76-.87,38.24-.91,2.28.59,6.35,1.21,8.63,1.48,12.74,2.01,26.85,3.15,39.72,4.07,8.65,1.25,19.26,2.08,28,1.37,2.68-.2,5.87-1.98,8.26-2.87-.05-.33-.15-.93-.21-1.36Z" fill="#fcc803"/>
        <path d="M1417.18,763.57c.01.07.04.24.07.44h0c-.04-.24-.06-.38-.07-.44Z" fill="#fcc803"/>
      </g>
      <path d="M521.86,1275.67c-22.06-69.66,3.2-147.75,67.87-184.49,10.29-5.31,23.51-11.47,34.84-13.9,10.24-3.08,22.32-4.54,33-4.75,12.47-.31,26.85.07,38.67,4.54,0,63.24,0,246.07.02,306.44-5.95,6.36-12.03,4.12-19.48,4.43-2.92.06-10.03.17-12.72-.71-6.56-.23-15.66-1.79-22.13-2.96-2.22-.65-27.06-7.76-28.2-8.56-10.15-4.08-23.3-11.09-32.17-17.57-15.69-11.27-30.57-27.01-41.32-43.06-7.46-11.44-13.9-26.49-18.36-39.41Z" fill="#fcc803"/>
      <path d="M523.7,1103.72c-21.89,25.63-36.76,58.91-43.17,91.92-2.14,11.53-3.87,24.23-4.57,35.95-.61,8.17-.61,24.26-1.26,32.39-6.88-18.94-10.6-40.85-12.27-60.87-.25-3.66,0-25.7.62-28.63,1.93-15.23,5.62-33.75,10.9-48.14,10.23-26.68,26.49-52.68,47.89-71.82,10.25-9.73,22.64-18.74,34.77-25.94,5.74-2.62,18.17-9.24,24.01-11.21,1.67-.89,19.14-6.22,21.39-6.96,16.7-4.02,35.81-6.86,53.02-5.86,41.95,3.28,83.78,20.37,112.91,51.28,11.37,11.54,22.25,25.82,29.81,40.15,2.93,5.91,8.38,16.06,9.06,22.79-4.26-5.05-9.17-11.43-13.28-16.59,0,0-17.55-17.59-17.55-17.59-3.47-2.77-8.31-6.58-11.83-9.26-20.33-15.16-45.01-26.14-69.69-31.83-6-1.41-13.59-2.28-19.68-3.21-3.06-.01-10.68-.39-13.64-.74-34.13-1-69.31,11.54-97.92,29.58-5.3,3.5-11.52,8.19-16.49,12.16-2.77,1.41-20.37,20.05-23.03,22.44Z" fill="#fcc803"/>
      <path d="M1885.55,1219.3c1.02-6.69,1.39-17.51,2.25-24.23,3.87-37.77,27.61-71.74,57.07-94.63,30.73-23.24,70.16-31.98,108.26-27.18,3.19-.07,10.64,3.3,13.55,4.33,3.11,5.37,4.3,11.28,4.04,17.87-.02,66.5-.1,206.86-.12,274.09.67,8.78-5.05,15.72-14,15.09,0,0-170.12-.02-170.12-.02-2.72-41.59-.06-123.45-.93-165.32Z" fill="#fcc803"/>
      <path d="M1902.43,1085.58l-10.13,10.09-5.97,6.98-2.77,3.55-2.82,3.72-2.32,3.14-5.51,8.33-3.21,5.12-3.76,6.41c-5.67,9.66-10.13,19.84-13.52,30.62l-3.48,11.08-4.1,16.52-2.03,9.99-.65,3.77-1.03,7.39-.39,3.76-.69,8.23-.29,3.71-.32,16.6-.53,4.57-.58,14.36c2.05-.04-.91.02-1,.02l-1.8-6.8-2.31-8.71-.76-3.78-.75-3.76-1.06-5.33-.91-5.39-1-6.57-.78-6.25-.78-9.26-.3-4.52-.05-6.54-.08-10.28.45-4.48,1.09-10.16.5-5.25.93-5.78.83-4.41,2.02-8.1c3.99-15.98,9.82-31.1,18.06-45.37l5.4-9.36,19.5-26.54,18.24-18.5,4.99-4.15,4.18-3.3,3.59-2.73,7.6-5.4,5.11-3.16,4.66-2.84,3.26-2.02,13.05-6.38,4.45-1.81,4.04-1.54,11.08-3.77c13.46-3.85,26.65-6.42,40.66-7.38l3.79-.65,13.78.29,11.69,1.22,6.83.77,4.52.79,5.36.93,14.58,3.78,6.54,1.93,4.45,1.78,4.64,1.94,6.41,2.65,10.46,5.3,7.08,3.96,4.48,2.68,8.88,5.9,3.14,2.4,4.15,3.33,5.47,4.54,12.88,12.88,5.56,6.43,4.19,5.05,2.41,3.08,9.17,14.75,4.13,7.85,1.55,2.87,1.77,3.27.71,2.7s-.83-.3-1.91-.67l-2.51-3.2-10.13-10.14-2.97-2.49-6.86-6.14-2.94-2.48-4.09-3.36-4.61-3.65-21.32-13.71-13.55-6.74-7.03-3.03-10.85-3.91-12.83-3.68-15.34-3.22-9.8-1.27-4.88-.4-21.27.05-11.91.48-8.34,1.09-4.03.63-17.68,4.47-11.83,3.94-4.47,1.78-4.67,2-5.71,2.55-8.53,4.37-12.09,7.18-5.59,3.74-2.61,1.89-3.72,2.79-4.6,3.66-4.07,3.35-3.96,3.37Z" fill="#fcc803"/>
      <path d="M2290.77,1062.77c-9.39,3.12-22.78,1.78-32.59,1.75-3.21-.28-11.45-.77-14.45-1.6-3.06-.97-15.59-4.31-18.21-5.71-1.94-1.12-10.65-4.91-12.11-6.42-6-5.86-11.39-14.33-16.79-20.7-7.49-9.07-15.52-20.37-19.76-31.43,12.42,1.19,26.26,4.11,38.27,7.5,13.31,3.9,32.09,12.06,43.7,19.65,1.84,1.37,5.61,4.14,7.45,5.5,0,0,12.38,12.4,12.38,12.4,4.34,5.36,9.81,12.48,12.09,19.05Z" fill="#fcc803"/>
      <g>
        <path d="M1406.7,1136.3l-.09-36.34-.86-8.21-3.73-21.22-6.08-35.87-.88-9.17-.68-7.96-3.33,2.13-5.45,4.79-11.83,12-14.13,19.13-36.82,61.5-3.59,6.52.51-19.84.91-22.18.16-4.74.64-21.08c.6-19.89.86-39.29-1.69-58.95l-.98-7.57-3.72-18.29c-2.58-12.68-7.33-24.35-12.66-36.13l-12.76-23.24c-6.18-11.26-20.4-18.16-33.31-20.91l-17.55-3.74-23.35-4.21-10.14-1.72-23.65-4.06-32.87-5.69-6.32-1.77,33.18-23.77,5.15-3.12,22.78-11.31c10.96-5.44,22.47-8.62,34.21-11.83l20.12-5.5,5.67-1.59-6.74-1.14-8.4-.75-19.72-1.48c15.03-7.36,30.85-11.38,47.61-12.4l14.93-.91,21.72-.21,28.82.91.23-1.15-10.86-8.1-5.2-4.54-5.16-5.57-.08-1.67,10.17,1.11,7.6.83,30.66,3.31,5.65.56,9.22.84,14.6,1c8.27.57,16.43-.59,24.19-3.12,7.49-2.45,17.37-9.08,18.79-16.14.33-1.63-2.26-4.91-3.77-5.62l-5.67-2.66-15.87-5.43-6.33-2.8c-5.61-2.48-11.23-5.05-15.57-9.39l-12.86-12.89c-7.07-7.09-11.18-16.71-14.19-26.25l-4.46-14.16.44-1.51,18.77,6.4,15.65,5.5c11.49,4.04,22.33,8.93,32.96,14.85l9.42,6.31,6.76,6.14c12.14,11.02,17.14,25.17,21.07,26.65l7.83,2.95c6.33,2.38-2.79-26.87-15.93-39.9l-11.5-11.4-11.88-8.39-9.43-5.2-21.19-10.12-12.82-5.72-3.89-1.63-48.17-18.99-47.1-21.86-16.59-9.3c-17.85-10-34.45-21.31-49.84-34.74l-7.45-6.5-21.13-21.12-6.5-7.43c-12.9-14.75-23.37-30.88-32.76-48.14-14.06-25.83-21.45-50.7-23.95-79.9v-23.35c.01-1.75,1.31-5.59,2.44-6.84.43-.48,3.09.07,3.31.68l2.95,8.6c4.96,14.44,9.98,28.17,17.7,41.28l8.11,12.14c4.21,6.3,9.93,11.05,16.58,14.73,7.33,4.06,18.22,1.04,21.35-8.47,1.26-3.83,2.36-8.25,2.34-12.29l-.11-28.33-1.2-28.47-.03-28.84c0-1.08,3.43-1.77,3.96-1.04.71.98,2.33,3.1,2.63,4.09l4.86,16.19,2.94,10.91,3.01,10.74,9.05,28.78c4.52,14.36,10.6,27.78,17.82,40.93l11.87,17.63,6.35,6.64c6.25,6.53,15.45,10.02,24.77,7.82,5.3-1.25,9.11-6.18,10.58-11.18l2.09-7.08,1.02-6.21.69-6.78.58-18.11-.24-46.04.32-13.4c.02-.86,1.38-2.43,2.13-2.71s3.45.55,3.73,1.4l5.46,16.99,5.06,22.61,4.23,19.66c2.43,11.33,5.17,22.25,9.27,33.07,4.12,10.89,13.23,25.54,23.09,30.24,6.9,3.28,16.07,1.8,21.49-3.71,3.02-3.08,5.41-7.64,6.58-11.78l8.53-30.13,11.1-40.43,2.47-5.87c.93-2.22,2.87-4.3,4.75-5.06.51-.21,2.26,1.22,2.26,1.77l-.21,13.89-.94,11.21-1.72,18.45-.87,15.62-.24,26.98,1.02,11.07c.74,7.95,3.64,15.49,8.52,21.89,6.16,8.08,19.11,11.12,26.44,5.12,5.37-4.39,9.22-9.94,12.68-15.84l2.76-4.71,1.62-2.86,8.24-16.67,7.34-15.66,4.02-8.79,4.85-10.79,4.02-8.95,4.25-9.47,3.71-8.27,4.88-10.81,3.94-8.24,5.68-9.44c.33-.54,3.34-.55,3.64.01,1.29,2.4,1.54,5.62,1,8.57l-1.32,7.18-3.51,15.02-11.32,39.27-15.64,47.84-7.28,25.8-1.31,11.93-.04,6.49c-.07,13.2,4.62,24.41,17.75,26.08,10.72,1.36,25.25-4.34,34.04-10.57l10.19-7.22,7.08-5.99,3.03-3.19,6.57-7.37,2.9-3.53,20.35-30.19,1.72-2.95,3.05-5.29c.67-1.16,2.88-3.44,4.02-4.35.56-.45,2.92,1.48,2.86,2.18l-.57,7.27-2.17,9.24c-3.21,13.67-9.71,26.08-17.57,37.58l-6.37,9.33-3.61,4.77-3.66,4.49-6.12,6.95-6.84,6.84-9.71,8.83-2.94,2.44-4.08,3.38-6.03,4.99-4.97,4.22-6.34,5.68-5.53,5.48c-14.64,14.49-20.54,37.7-11.78,54.9l4.68,9.18c5.49,8.42,10.67,16.53,14.69,25.73l3.64,8.33,2.94,6.13c1.43-3.65,2.43-6.55,2.75-10.28l.13-1.46-.2-3.37-.37-2.4,1.02-1.14,9.58,5.01c6.45,3.37,13.25,6.75,18.48,11.93l17.55,17.4,2.75,3.66c3.38,4.5.49,11.9-2.35,13.68l-5.48,3.45-1.46.92c-.24.15-.05.66.08,1.26,5.2,10,11.32,18.93,18.36,27.69l3.68,4.59c4.43,5.52,9.34,9.72,15.7,12.9l17.75,8.87,25.79,12.92,9.86,4.97c15.47,7.79,29.99,16.34,43.59,27.16l14.38,14.17,2.83,3.57,4.17,6.1c6.39,9.36,11.13,26.17,11.41,37.25l.69,27.29c.21,8.2-2.2,21.25-7.18,26.18l-3.31,3.28c-8.47,8.39-26.21,12.25-38.94,13.45l-15.06-.07c-5.04-.02-11.42-2.29-15.07-5.83l-16.44-15.96-5.04-4.08c-23.26-18.82-56.34-15.53-80.74.31-10.65,6.46-17.59,15.97-20.9,27.89l-.72,1.2-.48,1.41c-7.46,21.99-17.02,42.32-31.81,60.67l-.52-1.63.02-32.28-.19-5.89-.98-10.28c-1.43-14.93-21.71-18.1-24.96-35.74l-1.63-8.87c-.9-4.89,1.56-9.59,4.08-13.61l.84-1.35c4.44-5.06,10.38-10.13,15.64-13.97l-1.42-1c-11.37-2.69-21.24-8.2-28.66-17.19l-.98-.94-.93-.89-.95-.91-.79-1.07-.78-1.06-.76-1.04-.8-1.09-.73-1.03-.78-1.12-.76-1.08-.64-1.21-.63-1.18-.67-1.21-.67-1.21-.6-1.1-.6-1.26-.63-1.32-.59-1.22-.73-1.51-2.91-10.25-.17-2.11-.24-1.55-.19-1.34-.24-1.73-.23-1.76-.66-1.72c-.3-1.45-.73-1.22-1.06.23l-2.67,12.55c-2.26,10.62,1.93,27.97,8.09,35.09l5.53,6.4,3.22,2.42,9.61,4.99,2.81.75c1.92.51-7.25,8.07-11.56,16.73l-8.23,16.53c-3.96,7.94-6.14,16.72-7.4,25.54l-2.12,14.83-.45,4.04c-2.13,19.11-5.72,37.47-12.42,55.65l-12,25.8-3.65,6.47-4.97,8.77-.68,1.18-1.15,1.34c-.12.15-.12-1.04-.08-1.32l.21-1.67.12-2.3ZM1565.11,836.6l7.42,1.06,10.92.97-2.2-5.24c-2.04-4.87-4.96-9.42-8.81-13.12-7.25-6.96-17.78-12.45-27.42-12.37l-4.53.04-9.71,1.16-1.57,1.4,17.01,10.24c7.24,4.35,11.01,14.74,18.88,15.87Z" fill="#fff"/>
        <path d="M1624.02,588.81l1.62-1.9c2.62,3.45,4.04,5.79,5.35,9.23,3.15,8.23,5.99,16.29,7.1,25.14l.59,4.69,1.13,41.38c.09,3.46.7,7.55,2.48,10.26,3.71,5.65,13.3.82,18.67-6.54,5.21-7.14,9.15-14.5,12.25-22.78,9.2-24.57,11.32-50.46,8.86-76.66l-.52-5.58-1.04-11.92-.78-10.84c5.25-.35,8.29,7.86,10.38,14.88,3.05,10.23,5.38,20.36,6.48,31.04l.81,7.8-.08,40.27-.31,12.58c-.04,1.65,1.64,4.88,2.66,6.16,4.8,2.05,10.87-.09,14.66-3.29,4.13-3.48,8.28-6.7,11.04-11.16l8.12-13.08,5.73-12.74c7.07-18.29,10.25-37.3,11.38-56.98l.04-22.26-.91-14.91.11-12.93c3.51,1.37,5.61,3.29,6.51,6.2l4.12,13.43,4.2,24.1.86,9.2-.07,32.7c-1.09,13.81-3.35,27.19-7.3,40.43-4.92,16.48-15.73,39.41-27.25,51.03l-13.3,13.41-3.96,3.44c-23.52,20.48-58.88,32.73-89.86,37.04l-7.17,1-12.21,1.88c-5.85.9-15.97,7.32-19.98,13.66l-5.84-6.56-5.13-4.93-7.5-6.34c-8.31-7.02-17.56-11.62-27.78-17.26l12.29-3.05,28.47-6.52c7.7-1.76,14.56-5.72,20.85-10.58l8.27-8.2c8.55-8.48,15.32-32.55,15.85-45.62l1.35-33.15-1.25-25.16Z" fill="#fff"/>
      </g>
    </g>
    <g>
      <g>
        <path d="M769.53,1974.45h-74.15l-109.63-192.49v192.49h-74.57v-309.34h74.57l109.42,192.49v-192.49h74.36v309.34Z" fill="#fff"/>
        <path d="M1075.25,1974.45h-74.15v-129.17h-109.84v129.17h-74.57v-309.34h74.57v122.8h109.84v-122.8h74.15v309.34Z" fill="#fff"/>
      </g>
      <g>
        <path d="M1392.81,1722.69h-92.84v251.76h-74.57v-251.76h-91.14v-57.58h258.56v57.58Z" fill="#fcc803"/>
        <path d="M1574.47,1916.66h-102.19l-17.85,57.79h-79.67l113.45-309.34h70.11l114.3,309.34h-80.1l-18.06-57.79ZM1490.12,1859.08h66.5l-33.36-107.29-33.14,107.29Z" fill="#fcc803"/>
        <path d="M1810.51,1767.94l50.57-102.83h85.2l-86.47,153.39,88.81,155.94h-86.05l-52.05-104.74-52.05,104.74h-85.83l88.6-155.94-86.26-153.39h84.98l50.56,102.83Z" fill="#fcc803"/>
        <path d="M2052.28,1974.45h-74.36v-309.34h74.36v309.34Z" fill="#fcc803"/>
      </g>
      <g>
        <path d="M560.11,2118.73h42.83v18.93h-67.43v-102.06h24.6v83.14Z" fill="#fff"/>
        <path d="M639.53,2137.66h-24.53v-102.06h24.53v102.06Z" fill="#fff"/>
        <path d="M696.24,2109.9l20.33-74.3h27.48l-34.35,102.06h-26.92l-34.07-102.06h27.27l20.26,74.3Z" fill="#fff"/>
        <path d="M814.78,2094.34h-38.69v24.39h45.7v18.93h-70.31v-102.06h70.45v19h-45.84v21.52h38.69v18.23Z" fill="#fff"/>
        <path d="M931.84,2097h-39.68v40.66h-24.6v-102.06h68.28v19h-43.67v23.48h39.68v18.93Z" fill="#fff"/>
        <path d="M983.99,2101.56h-13.32v36.1h-24.6v-102.06h40.17c12.1,0,21.57,2.68,28.39,8.05,6.82,5.37,10.23,12.96,10.23,22.76,0,7.1-1.44,12.98-4.31,17.65s-7.37,8.45-13.49,11.34l21.31,41.21v1.05h-26.36l-18.02-36.1ZM970.67,2082.63h15.56c4.67,0,8.19-1.23,10.55-3.69,2.36-2.46,3.54-5.89,3.54-10.3s-1.19-7.86-3.58-10.36c-2.38-2.51-5.89-3.76-10.51-3.76h-15.56v28.11Z" fill="#fff"/>
        <path d="M1103.02,2094.34h-38.69v24.39h45.7v18.93h-70.31v-102.06h70.45v19h-45.84v21.52h38.69v18.23Z" fill="#fff"/>
        <path d="M1183.35,2094.34h-38.69v24.39h45.7v18.93h-70.31v-102.06h70.45v19h-45.84v21.52h38.69v18.23Z" fill="#fff"/>
        <path d="M1309.81,2101.56h-13.32v36.1h-24.6v-102.06h40.17c12.1,0,21.57,2.68,28.39,8.05,6.82,5.37,10.23,12.96,10.23,22.76,0,7.1-1.44,12.98-4.31,17.65-2.87,4.67-7.37,8.45-13.49,11.34l21.31,41.21v1.05h-26.36l-18.01-36.1ZM1296.49,2082.63h15.56c4.67,0,8.19-1.23,10.55-3.69,2.36-2.46,3.54-5.89,3.54-10.3s-1.19-7.86-3.58-10.36c-2.38-2.51-5.89-3.76-10.51-3.76h-15.56v28.11Z" fill="#fff"/>
        <path d="M1391.75,2137.66h-24.53v-102.06h24.53v102.06Z" fill="#fff"/>
        <path d="M1408.86,2137.66v-102.06h32.88c9.02,0,17.13,2.04,24.32,6.13,7.2,4.09,12.82,9.86,16.86,17.31,4.04,7.45,6.09,15.81,6.13,25.06v4.7c0,9.35-1.97,17.72-5.92,25.13-3.95,7.41-9.51,13.2-16.68,17.38-7.17,4.18-15.18,6.3-24.01,6.34h-33.58ZM1433.46,2054.59v64.14h8.55c7.06,0,12.48-2.51,16.26-7.54,3.79-5.02,5.68-12.49,5.68-22.4v-4.42c0-9.86-1.89-17.29-5.68-22.29-3.79-5-9.3-7.5-16.54-7.5h-8.27Z" fill="#fff"/>
        <path d="M1564.96,2094.34h-38.69v24.39h45.7v18.93h-70.31v-102.06h70.45v19h-45.84v21.52h38.69v18.23Z" fill="#fff"/>
        <path d="M1642.35,2118.73h42.83v18.93h-67.43v-102.06h24.6v83.14Z" fill="#fff"/>
        <path d="M1777.5,2088.73c0,9.95-1.85,18.76-5.54,26.43-3.69,7.66-8.94,13.56-15.74,17.7-6.8,4.14-14.54,6.2-23.24,6.2s-16.4-2-23.13-5.99c-6.73-3.99-11.98-9.71-15.74-17.14-3.76-7.43-5.74-15.96-5.92-25.59v-5.75c0-10,1.83-18.82,5.5-26.46,3.67-7.64,8.93-13.54,15.77-17.7,6.85-4.16,14.64-6.24,23.38-6.24s16.36,2.06,23.13,6.17c6.78,4.11,12.04,9.97,15.81,17.56,3.76,7.59,5.67,16.3,5.71,26.11v4.7ZM1752.48,2084.45c0-10.14-1.69-17.84-5.08-23.1-3.39-5.26-8.24-7.89-14.54-7.89-12.34,0-18.86,9.25-19.56,27.76l-.07,7.5c0,10,1.66,17.69,4.98,23.06,3.32,5.37,8.25,8.06,14.79,8.06s11-2.64,14.37-7.92c3.36-5.28,5.07-12.87,5.12-22.78v-4.7Z" fill="#fff"/>
        <path d="M1872.76,2103.1c-.33,7.1-2.24,13.38-5.75,18.82-3.5,5.44-8.42,9.66-14.76,12.65-6.33,2.99-13.56,4.49-21.7,4.49-13.41,0-23.97-4.37-31.68-13.11s-11.57-21.08-11.57-37.01v-5.05c0-10,1.74-18.75,5.22-26.25,3.48-7.5,8.49-13.29,15.04-17.38,6.54-4.09,14.11-6.13,22.71-6.13,12.38,0,22.34,3.26,29.86,9.78,7.52,6.52,11.8,15.5,12.83,26.95h-24.53c-.19-6.22-1.75-10.68-4.7-13.39-2.94-2.71-7.43-4.07-13.46-4.07s-10.61,2.29-13.46,6.87c-2.85,4.58-4.35,11.89-4.49,21.94v7.22c0,10.89,1.37,18.67,4.1,23.34,2.73,4.67,7.44,7.01,14.13,7.01,5.65,0,9.98-1.33,12.97-4,2.99-2.66,4.58-6.89,4.77-12.69h24.46Z" fill="#fff"/>
        <path d="M1942.37,2118.59h-33.72l-5.89,19.07h-26.29l37.43-102.06h23.13l37.71,102.06h-26.43l-5.96-19.07ZM1914.54,2099.6h21.94l-11-35.4-10.94,35.4Z" fill="#fff"/>
        <path d="M2006.79,2118.73h42.83v18.93h-67.43v-102.06h24.6v83.14Z" fill="#fff"/>
      </g>
      <path d="M1231.9,2070.79c3.74,0,6.85,1.11,9.32,3.33,2.48,2.22,3.72,5.06,3.72,8.52s-1.24,6.3-3.72,8.52c-2.48,2.22-5.59,3.33-9.32,3.33s-6.9-1.12-9.36-3.36c-2.45-2.24-3.68-5.07-3.68-8.48s1.23-6.24,3.68-8.48c2.45-2.24,5.57-3.36,9.36-3.36Z" fill="#fcc803"/>
    </g>
  </g>
</svg>